<?xml version="1.0" encoding="utf-8"?>
<!-- Generator: Adobe Illustrator 24.0.3, SVG Export Plug-In . SVG Version: 6.00 Build 0)  -->
<svg version="1.1" id="Capa_1" xmlns="http://www.w3.org/2000/svg" xmlns:xlink="http://www.w3.org/1999/xlink" x="0px" y="0px"
	 viewBox="0 0 651 236" style="enable-background:new 0 0 651 236;" xml:space="preserve">
<style type="text/css">
	.st0{fill:#FF1C53;}
	.st1{fill:url(#SVGID_1_);}
</style>
<g>
	<path class="st0" d="M221.93,154.03c0,5.15,0.33,12.18,0.67,15.71c0.1,1.06-0.73,1.97-1.79,1.97h-14.67c-0.86,0-1.6-0.61-1.77-1.46
		c-0.06-0.32-0.12-0.67-0.18-1.03c-0.22-1.43-1.95-2.03-3-1.04c-2.95,2.76-7.81,5.11-16.62,5.11c-16.49,0-23.45-10.84-23.45-21.45
		c0-15.59,12.51-22.78,32.57-22.78h7.97c0.99,0,1.8-0.8,1.8-1.8v-2.38c0-4.86-1.75-9.65-10.53-9.65c-7.21,0-9.34,2.76-10.33,6.94
		c-0.19,0.82-0.91,1.41-1.75,1.41h-14.52c-1.09,0-1.95-0.97-1.78-2.04c1.68-11.2,9.49-19.94,29.1-19.83
		c18.32,0.12,28.3,7.28,28.3,23.56V154.03z M203.47,142.36c0-0.99-0.8-1.8-1.8-1.8h-5.92c-11.41,0-15.65,3.48-15.65,10.08
		c0,4.95,3.04,9.12,9.85,9.12C201.99,159.77,203.47,151.4,203.47,142.36L203.47,142.36z"/>
	<path class="st0" d="M241.53,151.14c2.69,0,5.14,1.41,6.67,3.63c2.19,3.16,6.02,4.88,11.32,4.88c6.99,0,9.54-2.51,9.54-6.65
		c0-4.39-2.94-6.12-12.74-8.52c-22.29-5.49-25.93-12.39-25.93-22.05c0-10.05,7.11-20.72,27.74-20.72c9.89,0,16.66,2.57,21.1,6.27
		c5.81,4.83,2.22,14.33-5.33,14.33l0,0c-2.7,0-5.32-1.21-6.88-3.42c-1.43-2.02-4.17-3.88-9.74-3.88c-6.26,0-8.29,2.77-8.29,5.85
		c0,3.4,2.12,5.05,13.23,7.64c22.82,5.31,26.05,13.13,26.05,23.16c0,11.33-8.62,21.64-29.48,21.64c-11.86,0-19.74-3.27-24.6-8.33
		c-4.99-5.19-1.32-13.83,5.87-13.83H241.53z"/>
	<path class="st0" d="M303.96,103.3h2.05c4.66,0,8.45,3.78,8.45,8.45v51.52c0,4.66-3.78,8.45-8.45,8.45h-2.05
		c-4.66,0-8.45-3.78-8.45-8.45v-51.52C295.51,107.08,299.29,103.3,303.96,103.3z"/>
	<path class="st0" d="M334.44,151.14c2.69,0,5.14,1.41,6.67,3.63c2.19,3.16,6.02,4.88,11.32,4.88c6.99,0,9.54-2.51,9.54-6.65
		c0-4.39-2.94-6.12-12.74-8.52c-22.29-5.49-25.93-12.39-25.93-22.05c0-10.05,7.11-20.72,27.74-20.72c9.89,0,16.66,2.57,21.1,6.27
		c5.81,4.83,2.22,14.33-5.33,14.33h-0.51c-2.56,0-4.89-1.33-6.37-3.42c-1.42-2.02-4.17-3.88-9.74-3.88c-6.26,0-8.29,2.77-8.29,5.85
		c0,3.4,2.12,5.05,13.23,7.64c22.82,5.31,26.05,13.13,26.05,23.16c0,11.33-8.62,21.64-29.48,21.64c-11.86,0-19.74-3.27-24.6-8.33
		c-4.99-5.19-1.32-13.83,5.87-13.83H334.44z"/>
	<path class="st0" d="M385.28,103.3h1.94c2.38,0,4.3-1.93,4.3-4.3v-9.92c0-2.38,1.93-4.3,4.3-4.3h10.33c2.38,0,4.3,1.93,4.3,4.3
		v9.92c0,2.38,1.93,4.3,4.3,4.3h4.79c2.38,0,4.3,1.93,4.3,4.3v5.63c0,2.38-1.93,4.3-4.3,4.3h-4.79c-2.38,0-4.3,1.93-4.3,4.3v29.46
		c0,5.19,1.59,7.21,7.23,7.21c0.01,0,0.02,0,0.03,0c2.36,0,4.28,1.91,4.28,4.27v5.13c0,2.12-1.54,3.94-3.64,4.26
		c-3.06,0.45-6.4,0.47-9.09,0.47c-13.35,0-17.75-7.14-17.75-19.11v-31.68c0-2.38-1.93-4.3-4.3-4.3h-1.94c-2.38,0-4.3-1.93-4.3-4.3
		v-5.63C380.98,105.23,382.91,103.3,385.28,103.3z"/>
	<path class="st0" d="M448.2,141.56c-2.39,0-4.16,2.18-3.71,4.53c1.29,6.75,5.57,12.39,13.31,12.39c6.58,0,9.24-2.2,10.98-5.34
		c0.67-1.21,1.93-1.97,3.31-1.97h11.11c2.8,0,4.62,2.94,3.39,5.46c-3.83,7.82-12.05,16.67-29.29,16.67
		c-22.53,0-32.31-16.85-32.31-34.8c0-21.46,11.01-36.79,32.98-36.79c23.5,0,31.48,17,31.48,34.07v1.99c0,2.08-1.69,3.77-3.77,3.77
		L448.2,141.56z M467.85,129.92c1.47,0,2.64-1.28,2.47-2.74c-0.78-6.7-4.22-11.93-12.37-11.93c-8.03,0-11.82,4.9-13.1,11.86
		c-0.27,1.46,0.87,2.81,2.36,2.81H467.85z"/>
	<path class="st0" d="M497.58,120.53c0-4.88,0-10.15-0.08-14.71c-0.02-1.39,1.1-2.53,2.49-2.53h13.63c1.28,0,2.35,0.96,2.47,2.23
		c0,0.03,0.01,0.06,0.01,0.09c0.2,2.06,2.65,2.98,4.17,1.58c3.23-2.96,8.3-5.5,16.09-5.5c13.74,0,22.67,9.28,22.67,26.48v41.03
		c0,1.37-1.11,2.49-2.49,2.49h-13.97c-1.37,0-2.49-1.11-2.49-2.49v-38.93c0-7.69-2.56-13.26-10.92-13.26
		c-8.05,0-12.65,4.47-12.65,16.55v35.64c0,1.37-1.11,2.49-2.49,2.49h-13.97c-1.37,0-2.49-1.11-2.49-2.49V120.53z"/>
	<path class="st0" d="M577.77,151.14c2.84,0,5.58,1.29,7.2,3.63c2.19,3.16,6.02,4.88,11.32,4.88c6.99,0,9.54-2.51,9.54-6.65
		c0-4.39-2.94-6.12-12.74-8.52c-22.28-5.49-25.93-12.39-25.93-22.05c0-10.05,7.1-20.72,27.74-20.72c9.89,0,16.66,2.57,21.1,6.27
		c5.81,4.83,2.22,14.33-5.33,14.33l0,0c-2.7,0-5.32-1.21-6.88-3.42c-1.42-2.02-4.17-3.88-9.74-3.88c-6.26,0-8.29,2.77-8.29,5.85
		c0,3.4,2.13,5.05,13.23,7.64c22.82,5.31,26.05,13.13,26.05,23.16c0,11.33-8.62,21.64-29.47,21.64c-11.86,0-19.74-3.27-24.6-8.33
		c-4.99-5.19-1.32-13.83,5.87-13.83H577.77z"/>
	<path class="st0" d="M640.73,75.23h2.05c4.66,0,8.45,3.78,8.45,8.45l0,0c0,4.66-3.78,8.45-8.45,8.45h-2.05
		c-4.66,0-8.45-3.78-8.45-8.45l0,0C632.28,79.01,636.06,75.23,640.73,75.23z M303.96,75.23h2.05c4.66,0,8.45,3.78,8.45,8.45l0,0
		c0,4.66-3.78,8.45-8.45,8.45h-2.05c-4.66,0-8.45-3.78-8.45-8.45l0,0C295.51,79.01,299.29,75.23,303.96,75.23z M640.73,103.3h2.05
		c4.66,0,8.45,3.78,8.45,8.45v51.52c0,4.66-3.78,8.45-8.45,8.45h-2.05c-4.66,0-8.45-3.78-8.45-8.45v-51.52
		C632.28,107.08,636.06,103.3,640.73,103.3z"/>
</g>
<g>
	<linearGradient id="SVGID_1_" gradientUnits="userSpaceOnUse" x1="68.6521" y1="179.3321" x2="71.1895" y2="-26.2006">
		<stop  offset="0.3028" style="stop-color:#FF5437"/>
		<stop  offset="0.7542" style="stop-color:#FF1C53"/>
	</linearGradient>
	<path class="st1" d="M130.15,205.1c0,17.16-27.82,31.07-62.13,31.07c-34.31,0-62.13-13.91-62.13-31.07
		c0-9.69,8.9-18.32,22.81-24.01c3.47-1.42,7.46-0.03,9.37,3.2c0.02,0.03,0.04,0.07,0.06,0.1c1.35,2.27,0.3,5.22-2.19,6.11
		c-8.93,3.19-14.52,7.68-14.52,12.66c0,9.65,20.87,17.47,46.6,17.47s46.6-7.83,46.6-17.47c0-4.6-4.75-8.77-12.5-11.89
		c-3.52-1.42-4.99-5.61-3.03-8.87l0.08-0.13c1.21-2.02,3.7-2.89,5.92-2.07C120.28,185.86,130.15,194.9,130.15,205.1z M70.01-0.17
		c-38.61,0-69.9,31.04-69.9,69.32c0,40.3,37.53,61.65,66.07,122.43c0.69,1.47,2.19,2.41,3.83,2.41c1.64,0,3.13-0.94,3.82-2.41
		c28.55-60.78,66.08-82.13,66.08-122.43C139.91,30.87,108.62-0.17,70.01-0.17z M71.28,108.55c-22.45,0.72-40.8-17.63-40.08-40.08
		c0.65-20.33,17.21-36.89,37.54-37.54C91.2,30.2,109.54,48.55,108.83,71C108.18,91.34,91.62,107.9,71.28,108.55z"/>
</g>
<g>
	<path class="st0" d="M69.83,100.08c-1.27,0-2.55-0.04-3.84-0.19c-5.26-0.59-9.32-5.12-9.44-10.53c-0.04-1.97-0.04-3.96-0.03-5.89
		c0-0.1,0-0.2,0-0.29c-0.15,0-0.3,0-0.45,0c-1.98,0.01-4.03,0.01-6.07-0.05c-5.46-0.17-10.07-4.73-10.28-10.17
		c-0.1-2.62-0.16-4.99,0.13-7.43c0.61-5.15,5.1-9.13,10.44-9.25c2.03-0.05,4.08-0.04,6.06-0.03c0.06,0,0.11,0,0.17,0
		c0-0.05,0-0.1,0-0.15c-0.01-1.9-0.02-3.8,0.02-5.7c0.08-4.5,2.26-7.94,6.31-9.97c1.38-0.69,2.93-1.03,4.74-1.04l0.71,0
		c1.61-0.01,3.27-0.02,4.95,0.06c5.43,0.26,9.99,4.87,10.16,10.27c0.06,2.04,0.06,4.09,0.05,6.07c0,0.16,0,0.31,0,0.47h0.29
		c1.87,0,3.74-0.01,5.6,0.01c5.19,0.05,9.48,3.47,10.69,8.51c0.09,0.38,0.19,0.82,0.2,1.34c0.01,0.56,0.04,1.11,0.07,1.67
		c0.11,2.28,0.22,4.63-0.34,7.1c-1.05,4.64-5.29,8.11-10.08,8.25c-2.01,0.06-4.03,0.05-5.98,0.05c-0.15,0-0.3,0-0.45,0
		c0,0.13,0,0.26,0,0.39c0.01,1.99,0.02,4.04-0.05,6.09c-0.18,5.54-4.83,10.19-10.37,10.36C71.98,100.05,70.91,100.08,69.83,100.08z
		 M59.52,77.19c1.66,0,3,1.34,3,3v0.71c0,0.87,0,1.74-0.01,2.61c-0.01,1.88-0.02,3.83,0.03,5.72c0.06,2.42,1.82,4.45,4.11,4.7
		c1.97,0.22,4.01,0.16,6.18,0.09c2.42-0.07,4.5-2.16,4.58-4.55c0.06-1.94,0.05-3.94,0.05-5.87c0-0.89-0.01-1.78,0-2.67v-0.75
		c0-1.66,1.34-3,3-3h0.83c0.87,0,1.76,0,2.64,0c1.9,0.01,3.87,0.01,5.78-0.04c2.1-0.06,3.95-1.57,4.41-3.58
		c0.38-1.68,0.29-3.53,0.2-5.5c-0.03-0.6-0.06-1.19-0.07-1.79c0,0.03-0.02-0.04-0.04-0.11c-0.56-2.35-2.49-3.88-4.91-3.91
		c-1.85-0.02-3.69-0.01-5.54-0.01l-3.3,0c-1.66,0-3-1.34-3-3v-0.81c0-0.9,0-1.79,0-2.68c0.01-1.93,0.01-3.93-0.05-5.86
		c-0.07-2.27-2.15-4.36-4.45-4.46c-1.52-0.07-3.03-0.07-4.63-0.06l-0.72,0c-0.86,0-1.54,0.14-2.08,0.41c-2.03,1.02-2.96,2.47-3,4.71
		c-0.03,1.86-0.02,3.71-0.02,5.57c0,0.85,0.01,1.7,0.01,2.55v0.63c0,1.66-1.34,3-3,3h-0.53c-0.89,0-1.77,0-2.66-0.01
		c-1.94-0.01-3.94-0.02-5.89,0.03c-2.33,0.05-4.36,1.79-4.62,3.96c-0.24,2.01-0.18,4.13-0.1,6.5c0.09,2.27,2.17,4.33,4.47,4.4
		c1.94,0.06,3.93,0.06,5.86,0.05c0.89,0,1.79,0,2.68,0H59.52z"/>
</g>
</svg>
