<!-- Generated by IcoMoon.io -->
<svg version="1.1" xmlns="http://www.w3.org/2000/svg" width="32" height="32" viewBox="0 0 32 32">
<title>users</title>
<path d="M24 28v-2.667c0-1.84-0.748-3.509-1.952-4.715s-2.875-1.952-4.715-1.952h-10.667c-1.84 0-3.509 0.748-4.715 1.952s-1.952 2.875-1.952 4.715v2.667c0 0.736 0.597 1.333 1.333 1.333s1.333-0.597 1.333-1.333v-2.667c0-1.105 0.447-2.103 1.172-2.828s1.723-1.172 2.828-1.172h10.667c1.105 0 2.103 0.447 2.828 1.172s1.172 1.723 1.172 2.828v2.667c0 0.736 0.597 1.333 1.333 1.333s1.333-0.597 1.333-1.333zM18.667 9.333c0-1.84-0.748-3.509-1.952-4.715s-2.875-1.952-4.715-1.952-3.509 0.748-4.715 1.952-1.952 2.875-1.952 4.715 0.748 3.509 1.952 4.715 2.875 1.952 4.715 1.952 3.509-0.748 4.715-1.952 1.952-2.875 1.952-4.715zM16 9.333c0 1.105-0.447 2.103-1.172 2.828s-1.723 1.172-2.828 1.172-2.103-0.447-2.828-1.172-1.172-1.723-1.172-2.828 0.447-2.103 1.172-2.828 1.723-1.172 2.828-1.172 2.103 0.447 2.828 1.172 1.172 1.723 1.172 2.828zM32 28v-2.667c-0.001-1.66-0.609-3.18-1.62-4.348-0.869-1.004-2.037-1.748-3.372-2.101-0.712-0.188-1.441 0.236-1.629 0.948s0.236 1.441 0.948 1.629c0.809 0.215 1.515 0.664 2.037 1.269 0.605 0.701 0.968 1.608 0.969 2.603v2.667c0 0.736 0.597 1.333 1.333 1.333s1.333-0.597 1.333-1.333zM21.003 5.465c1.071 0.275 1.927 0.953 2.449 1.836s0.708 1.96 0.433 3.031c-0.235 0.917-0.767 1.675-1.473 2.203-0.419 0.313-0.9 0.545-1.417 0.681-0.712 0.187-1.139 0.916-0.951 1.628s0.916 1.139 1.628 0.951c0.849-0.223 1.643-0.607 2.336-1.125 1.179-0.88 2.069-2.151 2.46-3.677 0.456-1.783 0.147-3.585-0.723-5.051s-2.3-2.604-4.083-3.061c-0.713-0.183-1.44 0.248-1.623 0.961s0.248 1.44 0.961 1.623z"></path>
</svg>
