<!-- Generated by IcoMoon.io -->
<svg version="1.1" xmlns="http://www.w3.org/2000/svg" width="32" height="32" viewBox="0 0 32 32">
<title>watch</title>
<path d="M14.667 12v4c0 0.368 0.149 0.701 0.391 0.943l2 2c0.521 0.521 1.365 0.521 1.885 0s0.521-1.365 0-1.885l-1.609-1.609v-3.448c0-0.736-0.597-1.333-1.333-1.333s-1.333 0.597-1.333 1.333zM20.44 25.701l-0.221 2.417c-0.032 0.355-0.196 0.66-0.444 0.877-0.24 0.212-0.553 0.337-0.893 0.337h-5.775c-0.36 0.001-0.679-0.133-0.92-0.359-0.233-0.219-0.388-0.519-0.42-0.857l-0.22-2.423c1.355 0.624 2.864 0.972 4.453 0.972 1.584 0 3.088-0.345 4.44-0.965zM10.916 9.823c1.383-1.14 3.152-1.823 5.084-1.823 2.209 0 4.208 0.893 5.657 2.343s2.343 3.448 2.343 5.657-0.893 4.208-2.343 5.657c-0.139 0.139-0.281 0.272-0.431 0.4-0.047 0.041-0.095 0.081-0.143 0.12-1.383 1.14-3.152 1.823-5.084 1.823-2.209 0-4.208-0.893-5.657-2.343s-2.343-3.448-2.343-5.657 0.893-4.208 2.343-5.657c0.139-0.139 0.281-0.272 0.431-0.4 0.047-0.041 0.095-0.081 0.143-0.12zM23.321 8.243l-0.42-4.607c-0.093-1.008-0.557-1.907-1.251-2.556-0.719-0.673-1.688-1.084-2.744-1.080h-5.805c-1.007 0.004-1.939 0.381-2.647 1.009-0.735 0.651-1.233 1.576-1.329 2.629l-0.419 4.577c-0.084 0.079-0.168 0.16-0.249 0.241-1.928 1.929-3.124 4.597-3.124 7.543s1.196 5.613 3.124 7.543c0.077 0.077 0.156 0.153 0.235 0.228l0.42 4.593c0.093 1.008 0.557 1.907 1.251 2.556 0.719 0.673 1.688 1.084 2.744 1.080h5.772c1.012 0.001 1.951-0.376 2.663-1.005 0.737-0.652 1.239-1.579 1.333-2.633l0.419-4.577c0.084-0.079 0.168-0.16 0.249-0.241 1.928-1.929 3.124-4.597 3.124-7.543s-1.196-5.613-3.124-7.543c-0.072-0.072-0.147-0.144-0.22-0.215zM11.56 6.299l0.221-2.417c0.032-0.353 0.196-0.659 0.441-0.876 0.239-0.212 0.549-0.337 0.889-0.339h5.795c0.36-0.001 0.679 0.133 0.92 0.359 0.233 0.219 0.388 0.519 0.42 0.857l0.221 2.428c-1.36-0.627-2.873-0.977-4.468-0.977-1.584 0-3.088 0.345-4.44 0.965z"></path>
</svg>
